<?xml version="1.0" encoding="utf-8"?>
<!-- Generator: Adobe Illustrator 15.0.0, SVG Export Plug-In . SVG Version: 6.00 Build 0)  -->
<!DOCTYPE svg PUBLIC "-//W3C//DTD SVG 1.1//EN" "http://www.w3.org/Graphics/SVG/1.1/DTD/svg11.dtd">
<svg version="1.1" id="Layer_1" xmlns="http://www.w3.org/2000/svg" xmlns:xlink="http://www.w3.org/1999/xlink" x="0px" y="0px"
	 width="325px" height="132px" viewBox="0 0 325 132" enable-background="new 0 0 325 132" xml:space="preserve">
<rect x="0.869" y="56.596" fill="none" width="323.465" height="39.552"/>
<g enable-background="new    ">
	<path d="M55.517,59.953c2.353-0.192,3.072-0.384,3.696-0.769c0.384-0.239,0.576-0.384,0.768-0.384c0.24,0,0.625,0.528,0.432,1.2
		c-0.384,1.344-0.864,3.792-1.008,5.568c0,0.432-0.336,1.248-0.912,1.248c-0.336,0-0.624-0.24-0.816-1.488
		c-0.48-2.736-1.104-3.168-3.456-3.264c-1.152,0-4.656,0.048-5.856,0.239c-0.288,0.049-0.48,0.385-0.48,0.576
		c0,2.209-0.048,5.856-0.048,9.985c0,5.521,0.048,10.608,0.24,13.009c0.144,1.536,0.528,2.496,3.744,3.168
		c0.672,0.145,1.2,0.673,1.2,0.961c0,0.432-0.816,0.624-1.344,0.624c-0.384,0-5.856-0.192-7.104-0.192c-1.488,0-5.185,0.288-6,0.288
		c-0.912,0-1.488-0.192-1.488-0.576c0-0.432,0.576-0.864,1.056-1.008c3.121-0.769,3.312-1.393,3.504-4.753
		c0.192-2.832,0.432-12.385,0.432-16.033c0-2.736-0.048-4.368-0.048-5.616c0-0.433-0.384-0.672-0.528-0.672
		c-0.912-0.145-4.368-0.192-5.424-0.192c-0.768,0-2.112,0.48-2.64,1.104c-0.48,0.527-1.008,1.392-1.632,2.544
		c-0.576,0.96-0.864,1.248-1.056,1.248c-0.48,0-0.72-0.576-0.72-1.056c0-0.912,0.864-4.033,0.912-6.481
		c0-0.191,0.432-0.96,0.768-0.96c0.336,0,0.528,0.385,0.816,0.769c0.144,0.191,1.056,0.672,1.968,0.768
		c1.056,0.097,7.393,0.288,10.657,0.288C47.836,60.097,53.933,60.049,55.517,59.953z"/>
	<path d="M64.059,59.856c2.352,0,3.648,0.192,5.856,0.192c1.92,0,3.888-0.144,4.32-0.144c0.816,0,1.344,0.288,1.344,0.624
		c0,0.384-0.288,0.72-1.344,1.104c-1.056,0.336-1.344,0.96-1.056,1.729c0.96,2.4,5.041,11.377,8.785,19.537
		c0.096,0.145,0.24,0.288,0.432-0.048c0.336-0.624,2.16-3.888,3.312-6.672c0.096-0.145,0.096-0.433,0-0.673
		c-1.824-4.416-3.264-7.44-4.752-10.272c-1.2-2.448-1.536-3.265-3.312-3.744c-0.816-0.24-1.152-0.576-1.152-0.96
		c0-0.433,0.768-0.673,1.536-0.673c0.672,0,2.977,0.192,4.608,0.192c2.256,0,4.465-0.144,4.993-0.144c0.624,0,1.2,0.239,1.2,0.672
		c0,0.384-0.528,0.768-1.2,0.96c-1.2,0.288-1.488,0.816-1.008,2.16c0.528,1.393,0.96,2.4,2.736,6.24
		c0.096,0.24,0.24,0.192,0.384-0.048c1.152-2.256,1.488-2.88,2.4-4.944c1.152-2.641,0.336-3.024-1.008-3.456
		c-0.576-0.24-1.152-0.576-1.152-0.912s0.288-0.624,1.44-0.624c0.96,0,1.728,0.096,3.312,0.096c1.536,0,3.072-0.096,3.84-0.096
		s1.152,0.24,1.152,0.527c0,0.48-0.432,0.769-1.392,1.009c-1.68,0.576-2.544,0.912-3.984,3.312c-0.48,0.815-1.824,3.072-3.792,6.816
		c-0.096,0.24-0.096,0.527,0.048,0.768c1.584,3.505,3.648,7.969,4.896,10.273c0.144,0.239,0.336,0.096,0.48-0.145
		c2.304-4.896,4.849-10.608,7.633-17.474c0.864-2.256,0.336-3.072-1.632-3.648c-0.672-0.191-1.248-0.527-1.248-0.863
		c0-0.576,0.72-0.673,1.44-0.673c1.104,0,2.352,0.192,3.312,0.192c1.536,0,2.784-0.144,4.32-0.144c0.864,0,1.44,0.191,1.44,0.527
		c0,0.433-0.528,0.769-1.392,1.009c-1.824,0.384-2.448,0.96-3.792,3.504c-0.624,1.152-3.168,6.48-6.433,13.633
		c-3.264,7.441-3.504,7.777-4.848,11.281c-0.24,0.672-0.96,1.2-1.393,1.2c-0.288,0-0.672-0.24-0.864-0.912
		c-1.392-3.552-3.648-7.969-5.473-11.953c-0.096-0.144-0.24-0.24-0.336-0.048c-2.496,4.656-4.464,8.929-5.76,12.146
		c-0.24,0.527-1.104,1.104-1.536,1.104c-0.336-0.192-0.432-0.144-0.769-0.912c-0.336-0.864-1.056-3.168-3.024-7.585
		c-1.872-4.32-6.241-14.257-7.969-17.617c-1.2-2.353-1.584-3.312-3.696-3.84c-0.528-0.097-1.296-0.433-1.296-0.912
		C62.667,60.145,63.243,59.856,64.059,59.856z"/>
	<path d="M129.052,60.049c1.584,0,3.552-0.192,4.224-0.288c0.192-0.048,0.528,0.288,0.576,0.624
		c0.048,0.864,0.048,4.177,0.048,5.137c0,0.672-0.336,1.344-0.768,1.344c-0.432,0-0.816-0.72-0.912-1.2
		c-0.624-2.688-1.968-3.408-3.072-3.6c-0.912-0.145-2.977-0.336-6.673-0.288c-0.192,0-0.576,0.191-0.624,1.344
		c-0.096,1.2-0.24,7.873-0.192,10.513c0,0.145,0.192,0.48,0.48,0.48h3.84c3.408,0,3.312-0.192,4.224-2.305
		c0.288-0.72,0.625-1.248,1.056-1.248c0.384,0,0.528,0.816,0.48,1.345c-0.096,1.344-0.192,2.208-0.192,3.312
		c0,1.297,0.096,2.064,0.192,3.265c0.048,0.864-0.24,1.44-0.624,1.44c-0.384,0-0.768-0.576-0.912-1.057
		c-0.624-2.112-1.248-2.448-3.12-2.592c-1.536-0.145-3.312-0.145-4.8-0.145c-0.192,0-0.624,0.48-0.624,0.576
		c-0.192,1.345-0.144,5.089-0.096,6.673c0.048,1.152,0,2.929,0.192,3.937c0.144,0.432,0.576,1.056,1.056,1.152
		c0.768,0.144,2.256,0.288,3.889,0.288c1.44,0,3.216,0,4.416-0.433c1.44-0.528,2.736-1.68,3.792-3.552
		c0.672-1.248,1.104-1.681,1.488-1.681c0.48,0,0.432,1.008,0.384,1.393c0,0.384-1.392,4.8-1.824,5.568
		c-0.144,0.336-0.912,0.624-1.152,0.624c-0.528,0-12.385-0.24-15.985-0.24c-3.216,0-3.744,0.24-5.473,0.24
		c-0.912,0-1.632-0.145-1.632-0.624c0-0.433,0.624-0.769,1.44-0.96c2.448-0.576,3.072-1.057,3.264-3.648
		c0.144-2.017,0.384-5.665,0.384-11.617c0-5.664,0.048-7.873-0.048-9.265c-0.096-1.729-0.48-2.688-2.544-3.072
		c-1.008-0.192-1.536-0.384-1.536-0.864c0-0.432,0.816-0.72,1.488-0.72c2.256,0,6.192,0.144,8.688,0.144H129.052z"/>
	<path d="M157.467,60.049c1.584,0,3.552-0.192,4.224-0.288c0.192-0.048,0.528,0.288,0.576,0.624
		c0.048,0.864,0.048,4.177,0.048,5.137c0,0.672-0.336,1.344-0.768,1.344c-0.432,0-0.816-0.72-0.912-1.2
		c-0.624-2.688-1.968-3.408-3.072-3.6c-0.912-0.145-2.977-0.336-6.673-0.288c-0.192,0-0.576,0.191-0.624,1.344
		c-0.096,1.2-0.24,7.873-0.192,10.513c0,0.145,0.192,0.48,0.48,0.48h3.84c3.408,0,3.312-0.192,4.224-2.305
		c0.288-0.72,0.625-1.248,1.056-1.248c0.384,0,0.528,0.816,0.48,1.345c-0.096,1.344-0.192,2.208-0.192,3.312
		c0,1.297,0.096,2.064,0.192,3.265c0.048,0.864-0.24,1.44-0.624,1.44c-0.384,0-0.768-0.576-0.912-1.057
		c-0.624-2.112-1.248-2.448-3.12-2.592c-1.536-0.145-3.312-0.145-4.8-0.145c-0.192,0-0.624,0.48-0.624,0.576
		c-0.192,1.345-0.144,5.089-0.096,6.673c0.048,1.152,0,2.929,0.192,3.937c0.144,0.432,0.576,1.056,1.056,1.152
		c0.768,0.144,2.256,0.288,3.889,0.288c1.44,0,3.216,0,4.416-0.433c1.44-0.528,2.736-1.68,3.792-3.552
		c0.673-1.248,1.104-1.681,1.488-1.681c0.479,0,0.433,1.008,0.384,1.393c0,0.384-1.393,4.8-1.824,5.568
		c-0.145,0.336-0.912,0.624-1.152,0.624c-0.528,0-12.385-0.24-15.985-0.24c-3.216,0-3.744,0.24-5.473,0.24
		c-0.912,0-1.632-0.145-1.632-0.624c0-0.433,0.624-0.769,1.44-0.96c2.448-0.576,3.072-1.057,3.264-3.648
		c0.144-2.017,0.384-5.665,0.384-11.617c0-5.664,0.048-7.873-0.048-9.265c-0.096-1.729-0.48-2.688-2.544-3.072
		c-1.008-0.192-1.536-0.384-1.536-0.864c0-0.432,0.816-0.72,1.488-0.72c2.256,0,6.192,0.144,8.688,0.144H157.467z"/>
	<path d="M188.521,73.202c-0.144,0.048-0.096,0.432,0.049,0.432c3.312,1.393,5.76,3.793,5.76,7.921c0,3.168-1.775,5.425-4.08,6.961
		c-2.305,1.632-6.672,2.112-8.592,2.112c-1.345,0-6.625-0.097-8.785-0.145c-1.729-0.048-2.881,0.048-3.648,0.048
		c-0.864,0-1.536-0.336-1.536-0.768c0-0.433,0.815-0.721,1.344-0.816c2.929-0.576,3.12-1.296,3.312-2.928
		c0.097-1.009,0.384-5.809,0.384-15.313c0-4.081-0.145-6.528-0.287-7.201c-0.24-1.056-0.529-1.439-3.025-1.92
		c-0.623-0.096-1.248-0.384-1.248-0.912c0-0.384,0.721-0.624,1.344-0.624h3.169c1.536,0,7.393-0.336,9.36-0.336
		c2.785,0,5.473,0.528,6.913,1.44c2.353,1.439,3.36,3.552,3.36,5.904C192.314,70.706,189.818,72.29,188.521,73.202z M180.553,61.441
		c-0.287,0-1.151,0.144-1.68,0.288c-0.096,0.048-0.384,0.479-0.432,0.768c-0.096,0.769-0.192,2.16-0.192,10.225
		c0,0.24,0.24,0.624,0.528,0.624c1.729,0,4.465-0.288,5.616-1.151c1.488-1.057,2.304-2.688,2.304-4.561
		C186.697,63.649,184.01,61.441,180.553,61.441z M184.441,75.746c-1.104-0.624-2.496-0.912-4.128-0.912
		c-0.673,0-1.488,0.192-1.632,0.336c-0.145,0.145-0.385,0.385-0.385,2.257c-0.048,1.248,0.096,7.008,0.192,8.448
		c0.048,0.384,0.288,1.152,0.624,1.536c0.816,0.864,2.16,1.632,3.024,1.632c3.072,0,5.856-3.072,5.856-7.057
		C187.994,79.154,186.554,76.898,184.441,75.746z"/>
	<path d="M200.231,59.953c1.296,0,3.408,0.096,4.8,0.096c1.873,0,5.186-0.192,6.337-0.192c1.104,0,1.488,0.24,1.488,0.576
		c0,0.433-0.576,0.769-1.056,0.912c-2.593,0.624-2.977,1.345-3.025,1.921c-0.336,2.399-0.336,7.248-0.336,14.353
		c0,3.312,0.049,7.249,0.24,8.881c0.096,1.152,1.537,1.824,1.729,1.872c0.912,0.145,2.641,0.24,3.984,0.24
		c1.057,0,2.592-0.048,3.457-0.24c0.432-0.096,0.959-0.191,1.487-0.672c0.624-0.624,1.776-1.729,3.024-3.744
		c0.432-0.624,0.96-0.96,1.296-0.96c0.337,0,0.384,0.528,0.192,1.296c-0.528,1.68-1.248,4.32-1.536,5.664
		c-0.097,0.288-0.912,0.816-1.104,0.816c-0.72,0-4.992-0.336-14.737-0.336c-2.304,0-5.616,0.288-7.104,0.288
		c-0.863,0-1.439-0.192-1.439-0.624c0-0.336,0.432-0.769,1.199-0.912c2.641-0.48,3.072-1.344,3.312-3.456
		c0.096-1.2,0.24-6.241,0.24-13.153c0-4.656,0-6.528-0.049-8.113c-0.047-1.632-0.287-2.399-2.496-2.928
		c-0.912-0.24-1.344-0.576-1.344-0.912C198.791,60.145,199.367,59.953,200.231,59.953z"/>
	<path d="M222.888,59.809c1.151,0,4.032,0.288,6.241,0.288c1.344,0,2.783-0.096,4.656-0.096c0.768,0,1.199,0.24,1.199,0.528
		c0,0.336-0.384,0.863-1.104,1.008c-1.633,0.336-1.729,1.104-1.104,2.353c0.576,1.056,3.456,6.048,5.521,9.553
		c0.096,0.144,0.48,0.048,0.624-0.145c0.769-1.2,4.128-6.528,5.329-8.881c0.815-1.488,0.768-2.448-1.488-2.928
		c-0.672-0.145-1.297-0.576-1.297-1.057c0-0.336,0.672-0.479,1.057-0.479c1.248,0,2.16,0.096,3.264,0.096
		c1.345,0,4.945-0.24,5.713-0.24c0.672,0,1.104,0.097,1.104,0.528s-0.527,0.769-1.344,1.008c-2.256,0.576-3.264,1.776-4.848,3.696
		c-2.017,2.496-4.896,7.057-6.385,9.361c-0.192,0.336-0.672,1.439-0.672,2.592c0,2.688,0.144,7.921,0.336,9.505
		c0.144,1.248,0.479,1.872,3.072,2.544c0.912,0.24,1.248,0.576,1.248,0.912c0,0.385-0.528,0.673-1.488,0.673
		c-0.672,0-4.176-0.24-5.281-0.24c-3.168,0-6.336,0.336-6.96,0.336c-0.72,0-1.248-0.192-1.248-0.576
		c0-0.288,0.384-0.768,1.392-1.008c2.545-0.721,3.072-1.488,3.121-2.208c0.144-2.209,0.048-7.489,0.048-9.266
		c0-0.479-0.288-2.063-0.433-2.352c-0.816-1.633-3.648-6.192-5.712-9.553c-2.112-3.36-3.024-4.032-4.608-4.417
		c-0.864-0.191-1.393-0.527-1.393-0.96C221.447,60.001,222.072,59.809,222.888,59.809z"/>
	<path d="M263.736,62.833c0,4.896-5.137,6.769-6.24,6.769c-0.432,0-0.961-0.144-0.961-0.479c0-0.48,0.433-0.912,0.769-1.057
		c2.112-0.864,3.169-2.208,3.169-3.696c0-1.2-0.625-1.68-2.209-2.064c-0.624-0.144-1.536-0.384-1.536-1.872
		c0-1.584,1.488-2.64,2.929-2.64C262.008,57.793,263.736,59.617,263.736,62.833z"/>
	<path d="M285.48,60.049c0.192,0.048,0.576,0.72,0.625,0.96c0,0.624,0.479,4.32,0.479,4.513c0,0.72-0.144,1.2-0.433,1.2
		c-0.383,0-1.151-0.433-1.392-1.152c-0.479-1.584-1.488-2.928-2.063-3.408c-1.152-0.96-2.354-1.344-3.841-1.344
		c-2.257,0-4.896,1.872-4.896,4.992c0,2.832,2.112,4.368,6.433,7.104c5.904,3.601,7.057,6.673,7.057,9.601
		c0,2.496-1.44,5.377-4.225,7.057c-1.633,1.008-4.416,1.729-6.721,1.729c-2.832,0-4.944-0.48-6.912-1.248
		c-0.385-0.192-1.248-1.2-1.248-1.393c-0.385-1.68-0.816-3.744-0.816-5.136c0-0.337,0.527-1.009,0.768-1.009
		c0.385,0,1.152,1.152,1.873,2.641c1.439,2.928,4.225,4.416,6.672,4.416c2.209,0,4.992-1.728,4.992-4.8
		c0-2.017-1.008-3.937-5.424-6.817c-4.896-3.216-7.537-5.856-7.537-10.129c0-2.735,1.393-5.04,2.929-6.288
		c1.584-1.344,3.841-2.305,7.632-2.305C281.641,59.232,284.185,59.809,285.48,60.049z"/>
</g>
<rect x="-0.42" y="100.087" fill="none" width="324.648" height="15.315"/>
<g enable-background="new    ">
	<path d="M93.155,103.442h-0.854l0.098-1.849h-2.661l-0.701,3.95h1.625l0.28-1.555h0.7l-0.63,3.6h-0.7l0.252-1.442h-1.625
		l-0.448,2.521c-0.224,1.232-0.07,1.246,0.168,1.246h1.064l-0.112,0.645h-3.978l0.112-0.645h1.134l1.247-7.073
		c0.224-1.233,0.042-1.247-0.196-1.247h-0.995l0.112-0.645h6.542L93.155,103.442z"/>
	<path d="M101.291,110.559h-3.18l0.126-0.645h0.812l-0.364-1.891h-4.006l-1.036,1.891h0.98l-0.112,0.645h-2.773l0.112-0.645h0.952
		l4.889-8.965h1.037l1.667,8.629c0.056,0.322,0.364,0.336,0.504,0.336h0.504L101.291,110.559z M97.634,102.561l-2.633,4.86h3.572
		L97.634,102.561z"/>
	<path d="M109.479,103.877h-0.729c-0.014-0.967-0.042-2.493-1.611-2.493c-0.98,0-1.667,0.756-1.667,1.778
		c0,1.065,1.064,1.695,1.877,2.172c0.995,0.588,1.961,1.19,1.961,2.409c0,2.003-1.695,2.983-3.446,2.983
		c-1.05,0-1.891-0.28-2.507-0.925l-0.266,0.925h-0.714l0.518-3.012h0.687l0.14,1.303c0.406,0.645,1.205,1.022,1.989,1.022
		c1.121,0,2.143-0.603,2.143-1.862c0-0.854-0.574-1.331-1.485-1.863c-1.064-0.616-2.199-1.387-2.199-2.857
		c0-1.695,1.345-2.647,2.941-2.647c0.896,0,1.471,0.35,1.891,0.84l0.252-0.84h0.757L109.479,103.877z"/>
	<path d="M119.504,103.877h-0.728c0.056-1.205-0.462-2.493-2.241-2.493c-2.76,0-4.469,2.899-4.469,5.351
		c0,1.779,0.812,3.306,2.942,3.306c0.812,0,1.835-0.252,2.815-0.84l0.28,0.49c-0.953,0.729-2.213,1.036-3.348,1.036
		c-2.927,0-4.216-1.835-4.216-3.964c0-2.886,2.326-5.953,6.009-5.953c0.883,0,1.765,0.252,2.507,0.742l0.238-0.742h0.743
		L119.504,103.877z"/>
	<path d="M125.032,101.594h-1.134l-1.247,7.074c-0.224,1.232-0.056,1.246,0.21,1.246h0.966l-0.112,0.645h-3.922l0.112-0.645h1.134
		l1.247-7.073c0.224-1.233,0.042-1.247-0.224-1.247h-0.967l0.112-0.645h3.922L125.032,101.594z"/>
	<path d="M135.899,101.594h-1.121l-1.583,8.965h-0.812l-4.566-7.648l-1.247,7.004h1.134l-0.126,0.645h-3.18l0.112-0.645h1.134
		l1.247-7.073c0.224-1.233,0.056-1.247-0.182-1.247h-1.009l0.112-0.645h2.437l4.371,7.312l1.176-6.668h-1.12l0.112-0.645h3.222
		L135.899,101.594z"/>
	<path d="M144.06,110.559h-3.18l0.126-0.645h0.812l-0.364-1.891h-4.006l-1.036,1.891h0.98l-0.112,0.645h-2.773l0.112-0.645h0.952
		l4.889-8.965h1.037l1.667,8.629c0.056,0.322,0.364,0.336,0.504,0.336h0.504L144.06,110.559z M140.404,102.561l-2.633,4.86h3.572
		L140.404,102.561z"/>
	<path d="M152.544,103.667h-0.827l0.112-2.073h-2.186l-1.247,7.074c-0.224,1.232-0.042,1.246,0.224,1.246h0.953l-0.112,0.645h-3.922
		l0.112-0.645h1.135l1.457-8.32h-2.199l-0.617,2.073h-0.826l0.476-2.718h7.942L152.544,103.667z"/>
	<path d="M157.736,101.594h-1.134l-1.247,7.074c-0.224,1.232-0.056,1.246,0.21,1.246h0.966l-0.112,0.645h-3.922l0.112-0.645h1.134
		l1.247-7.073c0.224-1.233,0.042-1.247-0.224-1.247H153.8l0.112-0.645h3.922L157.736,101.594z"/>
	<path d="M168.604,101.594h-1.121l-1.582,8.965h-0.812l-4.567-7.648l-1.247,7.004h1.134l-0.126,0.645h-3.18l0.112-0.645h1.134
		l1.247-7.073c0.224-1.233,0.056-1.247-0.182-1.247h-1.009l0.112-0.645h2.437l4.371,7.312l1.176-6.668h-1.12l0.112-0.645h3.221
		L168.604,101.594z"/>
	<path d="M178.164,106.776h-0.854l-0.336,1.934c-1.205,1.358-2.773,2.017-4.314,2.017c-2.928,0-4.16-1.835-4.16-3.964
		c0-2.886,2.324-5.953,6.009-5.953c0.882,0,1.765,0.252,2.507,0.742l0.238-0.742h0.742l-0.531,3.067h-0.729
		c0.056-1.205-0.463-2.493-2.242-2.493c-2.759,0-4.468,2.899-4.468,5.351c0,1.779,0.757,3.306,2.886,3.306
		c0.868,0,1.807-0.364,2.619-0.966l0.406-2.298h-1.989l0.112-0.616h4.217L178.164,106.776z"/>
	<path d="M185.16,110.559h-3.978l0.112-0.645h1.135l1.246-7.073c0.225-1.233,0.043-1.247-0.224-1.247h-0.967l0.112-0.645h4.454
		c2.886,0,4.259,1.877,4.259,3.964C191.311,107.561,189.167,110.559,185.16,110.559z M186.701,101.594h-1.428l-1.457,8.32h1.316
		c2.928,0,4.664-2.619,4.664-4.916C189.797,103.205,188.943,101.594,186.701,101.594z"/>
	<path d="M199.99,110.559h-3.18l0.125-0.645h0.812l-0.363-1.891h-4.007l-1.036,1.891h0.98l-0.112,0.645h-2.773l0.112-0.645h0.952
		l4.889-8.965h1.036l1.668,8.629c0.056,0.322,0.363,0.336,0.504,0.336h0.504L199.99,110.559z M196.334,102.561l-2.634,4.86h3.572
		L196.334,102.561z"/>
	<path d="M205.812,101.594h-1.134l-1.248,7.074c-0.224,1.232-0.055,1.246,0.211,1.246h0.967l-0.112,0.645h-3.923l0.113-0.645h1.134
		l1.247-7.073c0.225-1.233,0.042-1.247-0.225-1.247h-0.967l0.113-0.645h3.922L205.812,101.594z"/>
	<path d="M211.916,110.559h-6.457l0.111-0.645h1.135l1.247-7.073c0.224-1.233,0.056-1.247-0.183-1.247h-1.008l0.111-0.645h3.908
		l-0.111,0.645h-1.121l-1.457,8.32h2.914l0.574-1.807h0.756L211.916,110.559z"/>
	<path d="M218.242,101.594h-1.134l-1.247,7.074c-0.225,1.232-0.056,1.246,0.211,1.246h0.966l-0.112,0.645h-3.922l0.112-0.645h1.134
		l1.248-7.073c0.224-1.233,0.041-1.247-0.225-1.247h-0.967l0.112-0.645h3.922L218.242,101.594z"/>
	<path d="M225.132,103.442h-0.854l0.098-1.849h-2.66l-0.688,3.88h1.639l0.253-1.484h0.7l-0.631,3.6h-0.699l0.266-1.513h-1.639
		l-0.673,3.838h3.096l0.589-1.807h0.756l-0.434,2.451h-6.641l0.113-0.645h1.134l1.247-7.073c0.225-1.233,0.07-1.247-0.168-1.247
		h-1.023l0.113-0.645h6.541L225.132,103.442z"/>
	<path d="M233.141,103.877h-0.729c-0.014-0.967-0.042-2.493-1.611-2.493c-0.98,0-1.666,0.756-1.666,1.778
		c0,1.065,1.064,1.695,1.877,2.172c0.994,0.588,1.961,1.19,1.961,2.409c0,2.003-1.695,2.983-3.446,2.983
		c-1.05,0-1.892-0.28-2.507-0.925l-0.267,0.925h-0.714l0.518-3.012h0.687l0.14,1.303c0.406,0.645,1.205,1.022,1.99,1.022
		c1.12,0,2.143-0.603,2.143-1.862c0-0.854-0.574-1.331-1.484-1.863c-1.064-0.616-2.199-1.387-2.199-2.857
		c0-1.695,1.344-2.647,2.941-2.647c0.896,0,1.471,0.35,1.891,0.84l0.252-0.84h0.757L233.141,103.877z"/>
</g>
<g id="XMLID_2_">
	<g>
		<path d="M185.271,46.104c-0.021,0.852-0.487,1.553-0.996,1.993c-1.01,0.879-2.496,1.24-3.877,1.404
			c-1.519,0.179-3.109,0.129-4.783,0.104c-1.663-0.028-3.413-0.125-5.192-0.525c-1.765-0.398-3.413-0.819-4.952-1.383
			c-1.242-0.458-2.601-1.024-3.854-1.538c-0.192-0.078-0.405-0.203-0.544-0.223c-0.233-0.036-0.862,0.176-1.131,0.227
			c-2.673,0.509-5.512,0.657-8.84,0.297c-1.878-0.202-3.859-0.619-5.622-1.114c-1.748-0.498-3.476-1.021-4.822-1.771
			c-1.261-0.706-2.482-1.718-3.055-3.027c-0.294-0.668-0.45-1.591-0.162-2.392c0.289-0.786,0.811-1.218,1.479-1.565
			c1.237-0.639,2.907-0.869,4.765-0.582c1.905,0.295,3.564,0.88,5.213,1.497c0.301-6.45,0.195-12.565,0.107-18.839
			c-0.02-1.364-0.051-3.111-0.087-4.634c-0.014-0.448-0.133-1.217,0.051-1.513c0.149-0.238,0.677-0.204,1.07-0.243
			c5.045-0.504,10.378-0.473,16.259,0.256c0.45,0.055,0.911,0.106,1.363,0.176c4.72,0.711,9.234,1.719,13.318,3.043
			c0.864,0.284,1.783,0.592,2.697,0.905c0.379,0.13,0.688,0.189,0.738,0.452c0.029,0.162-0.163,0.539-0.275,0.813
			c-3.272,7.969-6.427,16.262-9.406,24.59c1.675,0.025,3.229-0.02,5.013,0.215c1.827,0.242,3.516,0.71,4.592,1.604
			C184.904,44.797,185.289,45.344,185.271,46.104z M172.725,46.005c1.051-3.08,2.135-6.109,3.23-9.121
			c-1.777-0.772-3.828-1.494-6.029-2.111c-2.1-0.584-4.646-1.203-6.973-1.503c-1.183-0.149-2.333-0.371-3.474-0.502
			c-3.431-0.387-6.688-0.455-9.663-0.258c-0.041,1.769-0.078,3.539-0.142,5.323C156.999,40.788,163.366,44.602,172.725,46.005z"/>
		<path fill="#FFFFFF" d="M175.955,36.884c-1.096,3.012-2.182,6.042-3.23,9.121c-9.357-1.403-15.726-5.217-23.05-8.172
			c0.063-1.785,0.101-3.555,0.142-5.323c2.976-0.197,6.232-0.129,9.663,0.258c1.141,0.132,2.291,0.354,3.474,0.502
			c2.325,0.3,4.873,0.919,6.973,1.503C172.127,35.39,174.178,36.112,175.955,36.884z"/>
	</g>
	<g>
		<path fill="none" stroke="#000000" stroke-miterlimit="10" d="M174.732,42.512c1.674,0.025,3.229-0.02,5.012,0.215
			c1.826,0.242,3.516,0.71,4.592,1.604c0.568,0.467,0.953,1.014,0.938,1.774c-0.022,0.852-0.488,1.553-0.996,1.993
			c-1.01,0.879-2.498,1.24-3.877,1.404c-1.52,0.179-3.11,0.129-4.784,0.104c-1.663-0.028-3.413-0.125-5.192-0.525
			c-1.765-0.398-3.413-0.819-4.953-1.383c-1.24-0.458-2.6-1.024-3.854-1.538c-0.192-0.078-0.405-0.203-0.544-0.223
			c-0.233-0.036-0.862,0.176-1.131,0.227c-2.673,0.509-5.512,0.657-8.84,0.297c-1.878-0.202-3.859-0.619-5.622-1.114
			c-1.748-0.498-3.476-1.021-4.822-1.771c-1.261-0.706-2.482-1.718-3.055-3.027c-0.294-0.668-0.45-1.591-0.162-2.392
			c0.289-0.786,0.811-1.218,1.479-1.565c1.237-0.639,2.907-0.869,4.765-0.582c1.905,0.295,3.564,0.88,5.213,1.497
			c0.301-6.45,0.195-12.565,0.107-18.839c-0.02-1.364-0.051-3.111-0.087-4.634c-0.014-0.448-0.133-1.217,0.051-1.513
			c0.149-0.238,0.677-0.204,1.07-0.243c5.045-0.504,10.378-0.473,16.259,0.256c0.45,0.055,0.911,0.106,1.363,0.176
			c4.72,0.711,9.233,1.719,13.317,3.043c0.865,0.284,1.785,0.592,2.698,0.905c0.38,0.13,0.687,0.189,0.738,0.452
			c0.03,0.162-0.163,0.539-0.274,0.813C180.865,25.891,177.712,34.184,174.732,42.512z"/>
		<path fill="none" stroke="#000000" stroke-miterlimit="10" d="M175.955,36.884c-1.096,3.012-2.182,6.042-3.23,9.121
			c-9.357-1.403-15.726-5.217-23.05-8.172c0.063-1.785,0.101-3.555,0.142-5.323c2.976-0.197,6.232-0.129,9.663,0.258
			c1.141,0.132,2.291,0.354,3.474,0.502c2.325,0.3,4.873,0.919,6.973,1.503C172.127,35.39,174.178,36.112,175.955,36.884z"/>
	</g>
</g>
</svg>
